<svg width="102" height="14" viewBox="0 0 102 14" fill="none" xmlns="http://www.w3.org/2000/svg">
<path d="M0.0761719 10.0107H1.66699C1.74316 10.6963 2.07715 11.2471 2.66895 11.6631C3.2666 12.0791 4.01953 12.2871 4.92773 12.2871C5.7832 12.2871 6.48926 12.085 7.0459 11.6807C7.6084 11.2705 7.88965 10.7549 7.88965 10.1338C7.88965 9.60059 7.69336 9.16113 7.30078 8.81543C6.91406 8.46973 6.29297 8.18555 5.4375 7.96289L3.81152 7.54102C2.63965 7.24219 1.78418 6.82617 1.24512 6.29297C0.706055 5.75391 0.436523 5.05371 0.436523 4.19238C0.436523 3.1377 0.852539 2.27637 1.68457 1.6084C2.52246 0.94043 3.60059 0.606445 4.91895 0.606445C6.17871 0.606445 7.22168 0.946289 8.04785 1.62598C8.87402 2.2998 9.30469 3.16699 9.33984 4.22754H7.75781C7.6875 3.54785 7.39453 3.01172 6.87891 2.61914C6.36328 2.22656 5.69238 2.03027 4.86621 2.03027C4.0459 2.03027 3.375 2.22363 2.85352 2.61035C2.33789 2.99707 2.08008 3.50098 2.08008 4.12207C2.08008 4.60254 2.26758 4.99805 2.64258 5.30859C3.02344 5.61328 3.64453 5.87695 4.50586 6.09961L5.83301 6.45117C7.14551 6.7793 8.08887 7.21582 8.66309 7.76074C9.2373 8.30566 9.52441 9.03223 9.52441 9.94043C9.52441 11.1006 9.09668 12.0205 8.24121 12.7002C7.3916 13.374 6.2373 13.7109 4.77832 13.7109C3.43066 13.7109 2.3291 13.374 1.47363 12.7002C0.618164 12.0264 0.152344 11.1299 0.0761719 10.0107ZM14.9209 13.6582C13.6436 13.6582 12.6182 13.2334 11.8447 12.3838C11.0713 11.5283 10.6846 10.377 10.6846 8.92969C10.6846 7.48242 11.0713 6.33398 11.8447 5.48438C12.6182 4.62891 13.6436 4.20117 14.9209 4.20117C16.1924 4.20117 17.2148 4.62891 17.9883 5.48438C18.7617 6.33398 19.1484 7.48242 19.1484 8.92969C19.1484 10.3711 18.7617 11.5195 17.9883 12.375C17.2148 13.2305 16.1924 13.6582 14.9209 13.6582ZM12.9609 11.417C13.4473 12.0146 14.1006 12.3135 14.9209 12.3135C15.7412 12.3135 16.3916 12.0176 16.8721 11.4258C17.3525 10.8281 17.5928 9.99609 17.5928 8.92969C17.5928 7.86328 17.3525 7.03418 16.8721 6.44238C16.3916 5.84473 15.7412 5.5459 14.9209 5.5459C14.1006 5.5459 13.4473 5.84473 12.9609 6.44238C12.4805 7.04004 12.2402 7.86914 12.2402 8.92969C12.2402 9.99023 12.4805 10.8193 12.9609 11.417ZM28.2012 4.35938V13.5H26.751V12.0146H26.7158C26.1475 13.1104 25.1807 13.6582 23.8154 13.6582C22.8252 13.6582 22.0488 13.3594 21.4863 12.7617C20.9297 12.1582 20.6514 11.335 20.6514 10.292V4.35938H22.1807V10.0195C22.1807 11.543 22.8838 12.3047 24.29 12.3047C25.0283 12.3047 25.6084 12.0732 26.0303 11.6104C26.458 11.1416 26.6719 10.5146 26.6719 9.72949V4.35938H28.2012ZM30.1875 13.5V4.35938H31.6289V5.81836H31.6641C31.9277 5.30859 32.3057 4.91309 32.7979 4.63184C33.29 4.34473 33.8789 4.20117 34.5645 4.20117C35.5605 4.20117 36.3369 4.50293 36.8936 5.10645C37.4502 5.7041 37.7285 6.52441 37.7285 7.56738V13.5H36.1992V7.83984C36.1992 7.0957 36.0234 6.53027 35.6719 6.14355C35.3203 5.75098 34.7959 5.55469 34.0986 5.55469C33.3779 5.55469 32.8008 5.78906 32.3672 6.25781C31.9336 6.72656 31.7168 7.34766 31.7168 8.12109V13.5H30.1875ZM43.1426 13.6582C41.9707 13.6582 41.0244 13.2275 40.3037 12.3662C39.5889 11.5049 39.2314 10.3594 39.2314 8.92969C39.2314 7.50586 39.5889 6.36328 40.3037 5.50195C41.0186 4.63477 41.9531 4.20117 43.1074 4.20117C43.752 4.20117 44.3291 4.34766 44.8389 4.64062C45.3486 4.93359 45.7412 5.33496 46.0166 5.84473H46.0518V0.817383H47.5811V13.5H46.1221V11.9531H46.0957C45.7969 12.4863 45.3926 12.9053 44.8828 13.21C44.373 13.5088 43.793 13.6582 43.1426 13.6582ZM43.4326 5.5459C42.624 5.5459 41.9824 5.85352 41.5078 6.46875C41.0332 7.07812 40.7959 7.89844 40.7959 8.92969C40.7959 9.9668 41.0332 10.79 41.5078 11.3994C41.9824 12.0088 42.624 12.3135 43.4326 12.3135C44.2236 12.3135 44.8594 12.0059 45.3398 11.3906C45.8203 10.7695 46.0605 9.94922 46.0605 8.92969C46.0605 7.91016 45.8174 7.09277 45.3311 6.47754C44.8506 5.85645 44.2178 5.5459 43.4326 5.5459ZM49.4883 6.88184C49.4883 6.09668 49.8047 5.45508 50.4375 4.95703C51.0762 4.45313 51.8965 4.20117 52.8984 4.20117C53.8418 4.20117 54.627 4.45313 55.2539 4.95703C55.8809 5.46094 56.2119 6.09961 56.2471 6.87305H54.7881C54.7354 6.42773 54.5361 6.0791 54.1904 5.82715C53.8506 5.5752 53.4023 5.44922 52.8457 5.44922C52.2891 5.44922 51.8408 5.5752 51.501 5.82715C51.1611 6.07324 50.9912 6.39844 50.9912 6.80273C50.9912 7.42383 51.498 7.86328 52.5117 8.12109L53.9268 8.46387C54.8467 8.69824 55.4941 9.00293 55.8691 9.37793C56.25 9.74707 56.4404 10.2686 56.4404 10.9424C56.4404 11.7393 56.1006 12.3926 55.4209 12.9023C54.7412 13.4062 53.8682 13.6582 52.8018 13.6582C51.8057 13.6582 50.9824 13.4121 50.332 12.9199C49.6875 12.4219 49.3242 11.7656 49.2422 10.9512H50.7715C50.9414 11.9238 51.6504 12.4102 52.8984 12.4102C53.5137 12.4102 54 12.29 54.3574 12.0498C54.7207 11.8037 54.9023 11.4727 54.9023 11.0566C54.9023 10.7285 54.7939 10.4678 54.5771 10.2744C54.3662 10.0811 54.0059 9.91699 53.4961 9.78223L51.8877 9.36914C50.2881 8.95898 49.4883 8.12988 49.4883 6.88184ZM72.6562 8.25293C72.6562 9.96973 72.1816 11.3086 71.2324 12.2695C70.2891 13.2305 68.9707 13.7109 67.2773 13.7109C65.5078 13.7109 64.0957 13.1133 63.041 11.918C61.9922 10.7168 61.4678 9.1084 61.4678 7.09277C61.4678 5.1123 61.9922 3.53613 63.041 2.36426C64.0898 1.19238 65.502 0.606445 67.2773 0.606445C68.6484 0.606445 69.8145 0.984375 70.7754 1.74023C71.7422 2.49023 72.3428 3.49512 72.5771 4.75488H70.916C70.6523 3.89941 70.2012 3.2373 69.5625 2.76855C68.9297 2.2998 68.168 2.06543 67.2773 2.06543C65.9707 2.06543 64.9453 2.51074 64.2012 3.40137C63.4629 4.28613 63.0938 5.51367 63.0938 7.08398C63.0938 8.67773 63.4688 9.9375 64.2188 10.8633C64.9688 11.7891 65.9883 12.252 67.2773 12.252C68.4023 12.252 69.3164 11.9209 70.0195 11.2588C70.7227 10.5908 71.0742 9.72656 71.0742 8.66602V8.4375H67.4971V7.04883H72.6562V8.25293ZM78.2373 13.6582C76.96 13.6582 75.9346 13.2334 75.1611 12.3838C74.3877 11.5283 74.001 10.377 74.001 8.92969C74.001 7.48242 74.3877 6.33398 75.1611 5.48438C75.9346 4.62891 76.96 4.20117 78.2373 4.20117C79.5088 4.20117 80.5312 4.62891 81.3047 5.48438C82.0781 6.33398 82.4648 7.48242 82.4648 8.92969C82.4648 10.3711 82.0781 11.5195 81.3047 12.375C80.5312 13.2305 79.5088 13.6582 78.2373 13.6582ZM76.2773 11.417C76.7637 12.0146 77.417 12.3135 78.2373 12.3135C79.0576 12.3135 79.708 12.0176 80.1885 11.4258C80.6689 10.8281 80.9092 9.99609 80.9092 8.92969C80.9092 7.86328 80.6689 7.03418 80.1885 6.44238C79.708 5.84473 79.0576 5.5459 78.2373 5.5459C77.417 5.5459 76.7637 5.84473 76.2773 6.44238C75.7969 7.04004 75.5566 7.86914 75.5566 8.92969C75.5566 9.99023 75.7969 10.8193 76.2773 11.417ZM87.7998 13.6582C86.5225 13.6582 85.4971 13.2334 84.7236 12.3838C83.9502 11.5283 83.5635 10.377 83.5635 8.92969C83.5635 7.48242 83.9502 6.33398 84.7236 5.48438C85.4971 4.62891 86.5225 4.20117 87.7998 4.20117C89.0713 4.20117 90.0938 4.62891 90.8672 5.48438C91.6406 6.33398 92.0273 7.48242 92.0273 8.92969C92.0273 10.3711 91.6406 11.5195 90.8672 12.375C90.0938 13.2305 89.0713 13.6582 87.7998 13.6582ZM85.8398 11.417C86.3262 12.0146 86.9795 12.3135 87.7998 12.3135C88.6201 12.3135 89.2705 12.0176 89.751 11.4258C90.2314 10.8281 90.4717 9.99609 90.4717 8.92969C90.4717 7.86328 90.2314 7.03418 89.751 6.44238C89.2705 5.84473 88.6201 5.5459 87.7998 5.5459C86.9795 5.5459 86.3262 5.84473 85.8398 6.44238C85.3594 7.04004 85.1191 7.86914 85.1191 8.92969C85.1191 9.99023 85.3594 10.8193 85.8398 11.417ZM97.0371 13.6582C95.8652 13.6582 94.9189 13.2275 94.1982 12.3662C93.4834 11.5049 93.126 10.3594 93.126 8.92969C93.126 7.50586 93.4834 6.36328 94.1982 5.50195C94.9131 4.63477 95.8477 4.20117 97.002 4.20117C97.6465 4.20117 98.2236 4.34766 98.7334 4.64062C99.2432 4.93359 99.6357 5.33496 99.9111 5.84473H99.9463V0.817383H101.476V13.5H100.017V11.9531H99.9902C99.6914 12.4863 99.2871 12.9053 98.7773 13.21C98.2676 13.5088 97.6875 13.6582 97.0371 13.6582ZM97.3271 5.5459C96.5186 5.5459 95.877 5.85352 95.4023 6.46875C94.9277 7.07812 94.6904 7.89844 94.6904 8.92969C94.6904 9.9668 94.9277 10.79 95.4023 11.3994C95.877 12.0088 96.5186 12.3135 97.3271 12.3135C98.1182 12.3135 98.7539 12.0059 99.2344 11.3906C99.7148 10.7695 99.9551 9.94922 99.9551 8.92969C99.9551 7.91016 99.7119 7.09277 99.2256 6.47754C98.7451 5.85645 98.1123 5.5459 97.3271 5.5459Z" fill="#E9EAE1"/>
</svg>
