<svg width="38" height="33" viewBox="0 0 38 33" fill="none" xmlns="http://www.w3.org/2000/svg">
<path d="M22.5 5H7.5C6.11929 5 5 6.11929 5 7.5V22.5C5 23.8807 6.11929 25 7.5 25H22.5C23.8807 25 25 23.8807 25 22.5V7.5C25 6.11929 23.8807 5 22.5 5Z" stroke="#3D4D43" stroke-width="2" stroke-linecap="round" stroke-linejoin="round"/>
<path d="M18.75 11.25H11.25V18.75H18.75V11.25Z" stroke="#3D4D43" stroke-width="2" stroke-linecap="round" stroke-linejoin="round"/>
<path d="M11.25 1.25V5" stroke="#3D4D43" stroke-width="2" stroke-linecap="round" stroke-linejoin="round"/>
<path d="M18.75 1.25V5" stroke="#3D4D43" stroke-width="2" stroke-linecap="round" stroke-linejoin="round"/>
<path d="M25 11.25H28.75" stroke="#3D4D43" stroke-width="2" stroke-linecap="round" stroke-linejoin="round"/>
<path d="M25 17.5H28.75" stroke="#3D4D43" stroke-width="2" stroke-linecap="round" stroke-linejoin="round"/>
<path d="M1.25 11.25H5" stroke="#3D4D43" stroke-width="2" stroke-linecap="round" stroke-linejoin="round"/>
<path d="M1.25 17.5H5" stroke="#3D4D43" stroke-width="2" stroke-linecap="round" stroke-linejoin="round"/>
<g clip-path="url(#clip0_387_19)">
<path d="M11.25 25V28.75" stroke="#3D4D43" stroke-width="2" stroke-linecap="round" stroke-linejoin="round"/>
<path d="M18.75 25V28.75" stroke="#3D4D43" stroke-width="2" stroke-linecap="round" stroke-linejoin="round"/>
</g>
<rect x="15" y="20" width="23" height="13" rx="3" fill="#B09F85"/>
<path d="M19.5742 30H16.6201V22.9541H19.5449C20.1862 22.9541 20.6973 23.1136 21.0781 23.4326C21.459 23.7516 21.6494 24.1781 21.6494 24.7119C21.6494 25.0895 21.5257 25.4248 21.2783 25.7178C21.0309 26.0107 20.7266 26.1865 20.3652 26.2451V26.2842C20.847 26.3298 21.2376 26.5104 21.5371 26.8262C21.8398 27.1419 21.9912 27.5326 21.9912 27.998C21.9912 28.6198 21.7764 29.1097 21.3467 29.4678C20.917 29.8226 20.3262 30 19.5742 30ZM17.8799 23.9355V25.9229H19.0322C19.4717 25.9229 19.8102 25.835 20.0479 25.6592C20.2855 25.4801 20.4043 25.2262 20.4043 24.8975C20.4043 24.5915 20.3018 24.3555 20.0967 24.1895C19.8949 24.0202 19.6051 23.9355 19.2275 23.9355H17.8799ZM17.8799 29.0186H19.2861C19.7484 29.0186 20.0999 28.9242 20.3408 28.7354C20.585 28.5465 20.707 28.2715 20.707 27.9102C20.707 27.5521 20.5817 27.2803 20.3311 27.0947C20.0837 26.9092 19.7174 26.8164 19.2324 26.8164H17.8799V29.0186ZM24.999 25.6592C24.6605 25.6592 24.3773 25.7764 24.1494 26.0107C23.9248 26.2419 23.7995 26.5397 23.7734 26.9043H26.1904C26.1774 26.5365 26.0618 26.237 25.8438 26.0059C25.6257 25.7747 25.3441 25.6592 24.999 25.6592ZM26.1953 28.4521H27.333C27.2549 28.9437 27.0059 29.3424 26.5859 29.6484C26.166 29.9512 25.6517 30.1025 25.043 30.1025C24.2682 30.1025 23.6595 29.8649 23.2168 29.3896C22.7741 28.9111 22.5527 28.2585 22.5527 27.4316C22.5527 26.6113 22.7725 25.9538 23.2119 25.459C23.6546 24.9642 24.2487 24.7168 24.9941 24.7168C25.7266 24.7168 26.3076 24.9528 26.7373 25.4248C27.167 25.8936 27.3818 26.5218 27.3818 27.3096V27.7051H23.7637V27.7783C23.7637 28.195 23.8809 28.5303 24.1152 28.7842C24.3529 29.0381 24.6702 29.165 25.0674 29.165C25.3473 29.165 25.5882 29.1016 25.79 28.9746C25.9951 28.8444 26.1302 28.6702 26.1953 28.4521ZM28.5049 23.6133H29.7207V24.8242H30.6973V25.7617H29.7207V28.4521C29.7207 28.6637 29.7712 28.82 29.8721 28.9209C29.973 29.0218 30.1309 29.0723 30.3457 29.0723C30.4889 29.0723 30.6045 29.0641 30.6924 29.0479V29.9756C30.5459 30.0081 30.3359 30.0244 30.0625 30.0244C29.5026 30.0244 29.1022 29.917 28.8613 29.7021C28.6237 29.4873 28.5049 29.1276 28.5049 28.623V25.7617H27.7627V24.8242H28.5049V23.6133ZM33.3486 29.165C33.6969 29.165 33.9899 29.0625 34.2275 28.8574C34.4684 28.6491 34.5889 28.3903 34.5889 28.0811V27.6855L33.3926 27.7588C33.0996 27.7783 32.8717 27.8516 32.709 27.9785C32.5495 28.1022 32.4697 28.2666 32.4697 28.4717C32.4697 28.6833 32.5495 28.8525 32.709 28.9795C32.8717 29.1032 33.085 29.165 33.3486 29.165ZM32.9824 30.083C32.4779 30.083 32.0628 29.9382 31.7373 29.6484C31.415 29.3587 31.2539 28.9827 31.2539 28.5205C31.2539 28.0615 31.4232 27.6986 31.7617 27.4316C32.1035 27.1647 32.5902 27.0117 33.2217 26.9727L34.5889 26.8945V26.5234C34.5889 26.2533 34.5026 26.0433 34.3301 25.8936C34.1608 25.7438 33.9248 25.6689 33.6221 25.6689C33.3389 25.6689 33.1077 25.7324 32.9287 25.8594C32.7497 25.9863 32.6406 26.1589 32.6016 26.377H31.4736C31.4997 25.8854 31.7096 25.4867 32.1035 25.1807C32.5007 24.8714 33.0231 24.7168 33.6709 24.7168C34.3122 24.7168 34.8249 24.873 35.209 25.1855C35.5964 25.498 35.79 25.9147 35.79 26.4355V30H34.6182V29.1748H34.5938C34.4473 29.4515 34.2259 29.6729 33.9297 29.8389C33.6335 30.0016 33.3177 30.083 32.9824 30.083Z" fill="white"/>
<defs>
<clipPath id="clip0_387_19">
<rect width="20" height="8" fill="white" transform="translate(9 21)"/>
</clipPath>
</defs>
</svg>
