<svg width="67" height="80" viewBox="0 0 67 80" fill="none" xmlns="http://www.w3.org/2000/svg">
<g filter="url(#filter0_d_19_247)">
<g filter="url(#filter1_i_19_247)">
<path d="M26.9287 25.0851C27.8511 36.6026 26.2623 48.6828 24.3375 51.5277C22.4498 49.7954 18.4934 37.3521 17.571 25.8346C16.6486 14.317 21.404 14.899 20.5797 4.60551C23.1789 10.1825 26.0063 13.5676 26.9287 25.0851Z" fill="#45671F"/>
</g>
<g filter="url(#filter2_i_19_247)">
<path d="M47.9458 33.892C45.9567 45.2739 41.3955 56.5722 38.82 58.8449C37.4258 56.6953 36.7091 43.6578 38.6982 32.2759C40.6873 20.894 37.549 23.4688 40.4994 9.78962C42.1087 17.4339 49.9349 22.5101 47.9458 33.892Z" fill="#689F29"/>
</g>
<g filter="url(#filter3_i_19_247)">
<path d="M49.4478 44.2135C45.306 55.0001 38.6564 65.2097 35.6918 66.9445C34.7372 64.5668 36.5422 51.635 40.684 40.8484C44.8257 30.0618 48.0959 35.7735 53.623 22.9175C53.7315 30.7286 53.5895 33.4269 49.4478 44.2135Z" fill="#3D5F30"/>
</g>
<g filter="url(#filter4_i_19_247)">
<path d="M23.966 60.0535C17.7954 50.2848 13.5867 38.8506 13.9684 35.437C16.4451 36.0933 25.7323 45.2714 31.9029 55.0401C38.0734 64.8089 33.5924 66.5042 39.1072 75.2347C34.2134 71.5052 30.1365 69.8223 23.966 60.0535Z" fill="#689F28"/>
</g>
<g filter="url(#filter5_i_19_247)">
<path d="M30.8958 46.3131C29.5965 57.7942 30.7886 69.92 32.6192 72.8264C34.5627 71.1569 38.9247 58.8499 40.2239 47.3687C41.5232 35.8876 36.7512 36.3135 37.9124 26.0525C35.1318 31.5414 32.1951 34.832 30.8958 46.3131Z" fill="#77B063"/>
</g>
<g filter="url(#filter6_di_19_247)">
<path d="M24.5463 36.1135C23.6239 47.631 25.2127 59.7111 27.1375 62.5561C29.0252 60.8237 32.9817 48.3804 33.9041 36.8629C34.8265 25.3454 35.3134 25.8208 36.1378 15.5273C33.5385 21.1044 25.4688 24.5959 24.5463 36.1135Z" fill="#9DBD69"/>
</g>
<path fill-rule="evenodd" clip-rule="evenodd" d="M18.8907 60.5876H18.8158L18.8081 60.6625C18.45 64.1679 18.4501 69.7982 19.3657 75.2207C20.2805 80.6379 22.1129 85.8717 25.4381 88.5579L25.4412 88.5604L25.4444 88.5626C26.9991 89.5928 29.9619 90.7041 33.4452 90.5034C36.9285 90.7041 39.8913 89.5928 41.446 88.5626L41.4493 88.5604L41.4523 88.5579C44.7776 85.8717 46.61 80.6379 47.5248 75.2207C48.4404 69.7982 48.4405 64.1679 48.0823 60.6625L48.0747 60.5876H47.9997H33.4349H33.3524H18.8907ZM33.3524 60.7542H18.9658C18.6166 64.251 18.623 69.8248 19.5294 75.1928C20.443 80.6028 22.2669 85.78 25.5392 88.4257C27.0677 89.4374 29.9973 90.5373 33.4445 90.3366C33.4447 90.3366 33.445 90.3365 33.4452 90.3366C33.4455 90.3365 33.4457 90.3365 33.446 90.3365C36.8932 90.5372 39.8227 89.4374 41.3512 88.4257C44.6235 85.78 46.4475 80.6028 47.361 75.1928C48.2675 69.8248 48.2738 64.251 47.9247 60.7542H33.4349H33.3524Z" fill="#F8ADB2"/>
<path d="M33.3524 60.7542H18.9658C18.6166 64.251 18.623 69.8248 19.5294 75.1928C20.443 80.6028 22.2669 85.78 25.5392 88.4257C27.0677 89.4374 29.9973 90.5373 33.4445 90.3366C33.4447 90.3366 33.445 90.3365 33.4452 90.3366L33.446 90.3365C36.8932 90.5372 39.8227 89.4374 41.3512 88.4257C44.6235 85.78 46.4475 80.6028 47.361 75.1928C48.2675 69.8248 48.2738 64.251 47.9247 60.7542H33.4349H33.3524Z" fill="#F8ADB2"/>
<path fill-rule="evenodd" clip-rule="evenodd" d="M18.8907 60.5876H18.8158L18.8081 60.6625C18.45 64.1679 18.4501 69.7982 19.3657 75.2207C20.2805 80.6379 22.1129 85.8717 25.4381 88.5579L25.4412 88.5604L25.4444 88.5626C26.9991 89.5928 29.9619 90.7041 33.4452 90.5034C36.9285 90.7041 39.8913 89.5928 41.446 88.5626L41.4493 88.5604L41.4523 88.5579C44.7776 85.8717 46.61 80.6379 47.5248 75.2207C48.4404 69.7982 48.4405 64.1679 48.0823 60.6625L48.0747 60.5876H47.9997H33.4349H33.3524H18.8907ZM33.3524 60.7542H18.9658C18.6166 64.251 18.623 69.8248 19.5294 75.1928C20.443 80.6028 22.2669 85.78 25.5392 88.4257C27.0677 89.4374 29.9973 90.5373 33.4445 90.3366C33.4447 90.3366 33.445 90.3365 33.4452 90.3366C33.4455 90.3365 33.4457 90.3365 33.446 90.3365C36.8932 90.5372 39.8227 89.4374 41.3512 88.4257C44.6235 85.78 46.4475 80.6028 47.361 75.1928C48.2675 69.8248 48.2738 64.251 47.9247 60.7542H33.4349H33.3524Z" fill="#3D4D43"/>
<path d="M33.3524 60.7542H18.9658C18.6166 64.251 18.623 69.8248 19.5294 75.1928C20.443 80.6028 22.2669 85.78 25.5392 88.4257C27.0677 89.4374 29.9973 90.5373 33.4445 90.3366C33.4447 90.3366 33.445 90.3365 33.4452 90.3366L33.446 90.3365C36.8932 90.5372 39.8227 89.4374 41.3512 88.4257C44.6235 85.78 46.4475 80.6028 47.361 75.1928C48.2675 69.8248 48.2738 64.251 47.9247 60.7542H33.4349H33.3524Z" fill="#3D4D43"/>
<mask id="mask0_19_247" style="mask-type:alpha" maskUnits="userSpaceOnUse" x="18" y="60" width="136" height="137">
<path fill-rule="evenodd" clip-rule="evenodd" d="M19.9718 60.5876H19.6313L19.5966 60.9275C17.9696 76.8511 17.9701 102.427 22.1294 127.058C26.2847 151.666 34.6084 175.441 49.7133 187.643L49.7271 187.654L49.742 187.664C56.8042 192.344 70.2627 197.392 86.0856 196.48C101.908 197.392 115.367 192.344 122.429 187.664L122.444 187.654L122.458 187.643C137.563 175.441 145.886 151.666 150.042 127.058C154.201 102.427 154.202 76.8511 152.575 60.9275L152.54 60.5876H152.199H86.0386H85.6639H19.9718ZM85.6639 61.3444H20.3127C18.7266 77.2284 18.7555 102.547 22.8731 126.932C27.0229 151.507 35.3082 175.024 50.1725 187.042C57.1158 191.638 70.4233 196.634 86.0821 195.722C86.0833 195.722 86.0844 195.722 86.0856 195.722C86.0867 195.722 86.0879 195.722 86.089 195.722C101.748 196.634 115.055 191.638 121.999 187.042C136.863 175.024 145.148 151.507 149.298 126.932C153.416 102.547 153.445 77.2284 151.858 61.3444H86.0386H85.6639Z" fill="#F8ADB2"/>
<path d="M85.6639 61.3444H20.3127C18.7266 77.2284 18.7555 102.547 22.8731 126.932C27.0229 151.507 35.3082 175.024 50.1725 187.042C57.1158 191.638 70.4233 196.634 86.0821 195.722C86.0833 195.722 86.0844 195.722 86.0856 195.722L86.089 195.722C101.748 196.634 115.055 191.638 121.999 187.042C136.863 175.024 145.148 151.507 149.298 126.932C153.416 102.547 153.445 77.2284 151.858 61.3444H86.0386H85.6639Z" fill="#F8ADB2"/>
</mask>
<g mask="url(#mask0_19_247)">
<path fill-rule="evenodd" clip-rule="evenodd" d="M24.3123 63.7387C23.638 62.91 22.8614 61.9555 22.6949 61.7315L24.264 60.4387C24.4156 60.6426 25.0752 61.4525 25.7027 62.2229C26.1852 62.8153 26.6486 63.3843 26.8475 63.6365C28.487 65.7162 31.0686 68.7725 33.4873 71.0272C34.801 69.2104 36.1044 67.4217 37.1481 65.9963C36.7686 65.4483 36.2491 64.7455 35.7211 64.0409C35.5578 63.823 35.3932 63.6043 35.2329 63.3914C34.6877 62.6669 34.1936 62.0105 33.9783 61.6872L35.6097 60.483C35.7883 60.7511 36.2214 61.3267 36.7522 62.0321C36.9217 62.2573 37.1011 62.4958 37.2854 62.7418C38.015 63.7153 38.8183 64.8032 39.2205 65.4627C40.4927 67.5491 41.9534 70.1099 42.8184 72.1385C43.0433 71.9209 43.2674 71.6972 43.4903 71.4675L43.541 71.4153C44.0895 70.85 46.506 68.3602 46.8676 67.9436L48.3383 69.3588C47.9764 69.7756 45.9955 71.8209 45.1839 72.6575C45.1755 73.8154 44.6556 76.517 44.5431 78.9054C44.4095 81.7386 43.764 84.2831 43.4903 85.7233L43.1511 85.4315C43.3898 84.1749 43.0154 81.4185 43.1511 78.5396C43.2182 77.1143 43.1192 75.7501 43.1511 74.6233C43.1161 74.6543 43.0811 74.6851 43.0461 74.7158C39.1821 78.1064 35.1148 79.9634 31.486 80.9012C32.294 81.8417 33.407 83.0136 34.6251 84.1589C36.5166 85.9374 38.4987 87.4959 39.8517 88.0498L39.1296 90.0047C37.4084 89.3001 35.192 87.5044 33.2978 85.7233C31.656 84.1795 30.1353 82.5306 29.2478 81.3788C28.9076 81.4362 28.5731 81.4858 28.2448 81.5283C25.7612 81.8491 22.2221 81.5032 20.7709 81.2757L21.0644 79.201C22.3597 79.4041 25.3361 79.69 27.5297 79.4972C27.6423 79.3169 27.774 79.1156 27.9138 78.9054C28.2418 78.4122 28.6767 77.7797 29.1829 77.0556C30.0522 75.8121 31.1409 74.285 32.2792 72.7023C30.029 70.6222 27.6742 67.9029 25.9953 65.8285C25.3681 66.5083 24.5377 67.5235 23.7178 68.7157C22.5204 70.4567 21.4395 72.4411 21.0302 74.1646L19.0972 73.6558C19.5988 71.5438 20.8557 69.3006 22.1038 67.4857C23.0087 66.1699 23.9584 65.0088 24.7036 64.2199C24.5813 64.0694 24.4489 63.9067 24.3123 63.7387ZM30.2701 79.0436C30.4312 78.8103 30.6043 78.5613 30.7878 78.2988C31.7922 76.8619 33.0965 75.0369 34.4351 73.1808C35.7821 71.3129 37.1615 69.4167 38.3006 67.8586C39.4987 69.8942 40.6497 72.0354 41.2318 73.5655C37.5238 76.6596 33.6567 78.2777 30.2701 79.0436Z" fill="white"/>
<g style="mix-blend-mode:multiply" opacity="0.5">
<path d="M25.3225 88.2125C18.7948 83.1838 18.1898 67.6731 18.7449 60.5876H24.3233C23.4953 79.6704 27.608 87.0831 29.1274 89.8216L29.1524 89.8667C27.9868 89.7013 25.822 88.7915 25.3225 88.2125Z" fill="#CC8F93"/>
<path d="M25.3225 88.2125C18.7948 83.1838 18.1898 67.6731 18.7449 60.5876H24.3233C23.4953 79.6704 27.608 87.0831 29.1274 89.8216L29.1524 89.8667C27.9868 89.7013 25.822 88.7915 25.3225 88.2125Z" stroke="black"/>
</g>
</g>
</g>
<defs>
<filter id="filter0_d_19_247" x="-2.99604" y="-8.76533" width="72.9921" height="112.761" filterUnits="userSpaceOnUse" color-interpolation-filters="sRGB">
<feFlood flood-opacity="0" result="BackgroundImageFix"/>
<feColorMatrix in="SourceAlpha" type="matrix" values="0 0 0 0 0 0 0 0 0 0 0 0 0 0 0 0 0 0 127 0" result="hardAlpha"/>
<feOffset/>
<feGaussianBlur stdDeviation="6.49802"/>
<feComposite in2="hardAlpha" operator="out"/>
<feColorMatrix type="matrix" values="0 0 0 0 0 0 0 0 0 0 0 0 0 0 0 0 0 0 0.15 0"/>
<feBlend mode="normal" in2="BackgroundImageFix" result="effect1_dropShadow_19_247"/>
<feBlend mode="normal" in="SourceGraphic" in2="effect1_dropShadow_19_247" result="shape"/>
</filter>
<filter id="filter1_i_19_247" x="17.4517" y="4.60547" width="9.74652" height="46.9224" filterUnits="userSpaceOnUse" color-interpolation-filters="sRGB">
<feFlood flood-opacity="0" result="BackgroundImageFix"/>
<feBlend mode="normal" in="SourceGraphic" in2="BackgroundImageFix" result="shape"/>
<feColorMatrix in="SourceAlpha" type="matrix" values="0 0 0 0 0 0 0 0 0 0 0 0 0 0 0 0 0 0 127 0" result="hardAlpha"/>
<feOffset dx="3.30215" dy="1.10072"/>
<feComposite in2="hardAlpha" operator="arithmetic" k2="-1" k3="1"/>
<feColorMatrix type="matrix" values="0 0 0 0 0 0 0 0 0 0 0 0 0 0 0 0 0 0 0.22 0"/>
<feBlend mode="normal" in2="shape" result="effect1_innerShadow_19_247"/>
</filter>
<filter id="filter2_i_19_247" x="37.4714" y="9.78955" width="10.7959" height="49.0554" filterUnits="userSpaceOnUse" color-interpolation-filters="sRGB">
<feFlood flood-opacity="0" result="BackgroundImageFix"/>
<feBlend mode="normal" in="SourceGraphic" in2="BackgroundImageFix" result="shape"/>
<feColorMatrix in="SourceAlpha" type="matrix" values="0 0 0 0 0 0 0 0 0 0 0 0 0 0 0 0 0 0 127 0" result="hardAlpha"/>
<feOffset dx="3.30215" dy="1.10072"/>
<feComposite in2="hardAlpha" operator="arithmetic" k2="-1" k3="1"/>
<feColorMatrix type="matrix" values="0 0 0 0 0 0 0 0 0 0 0 0 0 0 0 0 0 0 0.22 0"/>
<feBlend mode="normal" in2="shape" result="effect1_innerShadow_19_247"/>
</filter>
<filter id="filter3_i_19_247" x="35.4419" y="22.9175" width="18.2029" height="44.0271" filterUnits="userSpaceOnUse" color-interpolation-filters="sRGB">
<feFlood flood-opacity="0" result="BackgroundImageFix"/>
<feBlend mode="normal" in="SourceGraphic" in2="BackgroundImageFix" result="shape"/>
<feColorMatrix in="SourceAlpha" type="matrix" values="0 0 0 0 0 0 0 0 0 0 0 0 0 0 0 0 0 0 127 0" result="hardAlpha"/>
<feOffset dx="3.30215" dy="1.10072"/>
<feComposite in2="hardAlpha" operator="arithmetic" k2="-1" k3="1"/>
<feColorMatrix type="matrix" values="0 0 0 0 0 0 0 0 0 0 0 0 0 0 0 0 0 0 0.22 0"/>
<feBlend mode="normal" in2="shape" result="effect1_innerShadow_19_247"/>
</filter>
<filter id="filter4_i_19_247" x="13.9445" y="35.437" width="25.1627" height="39.7976" filterUnits="userSpaceOnUse" color-interpolation-filters="sRGB">
<feFlood flood-opacity="0" result="BackgroundImageFix"/>
<feBlend mode="normal" in="SourceGraphic" in2="BackgroundImageFix" result="shape"/>
<feColorMatrix in="SourceAlpha" type="matrix" values="0 0 0 0 0 0 0 0 0 0 0 0 0 0 0 0 0 0 127 0" result="hardAlpha"/>
<feOffset dx="3.30215" dy="1.10072"/>
<feComposite in2="hardAlpha" operator="arithmetic" k2="-1" k3="1"/>
<feColorMatrix type="matrix" values="0 0 0 0 0 0 0 0 0 0 0 0 0 0 0 0 0 0 0.22 0"/>
<feBlend mode="normal" in2="shape" result="effect1_innerShadow_19_247"/>
</filter>
<filter id="filter5_i_19_247" x="30.3488" y="26.0525" width="10.1014" height="46.7739" filterUnits="userSpaceOnUse" color-interpolation-filters="sRGB">
<feFlood flood-opacity="0" result="BackgroundImageFix"/>
<feBlend mode="normal" in="SourceGraphic" in2="BackgroundImageFix" result="shape"/>
<feColorMatrix in="SourceAlpha" type="matrix" values="0 0 0 0 0 0 0 0 0 0 0 0 0 0 0 0 0 0 127 0" result="hardAlpha"/>
<feOffset dx="3.30215" dy="1.10072"/>
<feComposite in2="hardAlpha" operator="arithmetic" k2="-1" k3="1"/>
<feColorMatrix type="matrix" values="0 0 0 0 0 0 0 0 0 0 0 0 0 0 0 0 0 0 0.22 0"/>
<feBlend mode="normal" in2="shape" result="effect1_innerShadow_19_247"/>
</filter>
<filter id="filter6_di_19_247" x="23.3963" y="15.5273" width="13.6221" height="48.79" filterUnits="userSpaceOnUse" color-interpolation-filters="sRGB">
<feFlood flood-opacity="0" result="BackgroundImageFix"/>
<feColorMatrix in="SourceAlpha" type="matrix" values="0 0 0 0 0 0 0 0 0 0 0 0 0 0 0 0 0 0 127 0" result="hardAlpha"/>
<feOffset dy="0.880573"/>
<feGaussianBlur stdDeviation="0.440286"/>
<feComposite in2="hardAlpha" operator="out"/>
<feColorMatrix type="matrix" values="0 0 0 0 0 0 0 0 0 0 0 0 0 0 0 0 0 0 0.25 0"/>
<feBlend mode="normal" in2="BackgroundImageFix" result="effect1_dropShadow_19_247"/>
<feBlend mode="normal" in="SourceGraphic" in2="effect1_dropShadow_19_247" result="shape"/>
<feColorMatrix in="SourceAlpha" type="matrix" values="0 0 0 0 0 0 0 0 0 0 0 0 0 0 0 0 0 0 127 0" result="hardAlpha"/>
<feOffset dx="2.86186" dy="9.24601"/>
<feComposite in2="hardAlpha" operator="arithmetic" k2="-1" k3="1"/>
<feColorMatrix type="matrix" values="0 0 0 0 0 0 0 0 0 0 0 0 0 0 0 0 0 0 0.25 0"/>
<feBlend mode="normal" in2="shape" result="effect2_innerShadow_19_247"/>
</filter>
</defs>
</svg>
