<svg width="67" height="80" viewBox="0 0 67 80" fill="none" xmlns="http://www.w3.org/2000/svg">
<g filter="url(#filter0_d_50_342)">
<g filter="url(#filter1_i_50_342)">
<path d="M26.9288 25.0854C27.8512 36.6029 26.2624 48.6831 24.3376 51.528C22.4499 49.7956 18.4935 37.3523 17.571 25.8348C16.6486 14.3173 21.4041 14.8992 20.5797 4.60575C23.179 10.1828 26.0063 13.5678 26.9288 25.0854Z" fill="#45671F"/>
</g>
<g filter="url(#filter2_i_50_342)">
<path d="M47.9458 33.8922C45.9567 45.2741 41.3955 56.5724 38.8201 58.8452C37.4259 56.6955 36.7092 43.658 38.6983 32.2761C40.6874 20.8942 37.5491 23.469 40.4995 9.78986C42.1088 17.4341 49.9349 22.5103 47.9458 33.8922Z" fill="#689F29"/>
</g>
<g filter="url(#filter3_i_50_342)">
<path d="M49.4478 44.214C45.306 55.0006 38.6564 65.2102 35.6918 66.945C34.7372 64.5673 36.5422 51.6355 40.684 40.8489C44.8257 30.0623 48.0959 35.774 53.623 22.918C53.7315 30.7291 53.5895 33.4274 49.4478 44.214Z" fill="#3D5F30"/>
</g>
<g filter="url(#filter4_i_50_342)">
<path d="M23.966 60.0535C17.7955 50.2848 13.5868 38.8506 13.9685 35.437C16.4452 36.0933 25.7324 45.2714 31.9029 55.0401C38.0735 64.8089 33.5925 66.5042 39.1072 75.2347C34.2134 71.5052 30.1366 69.8223 23.966 60.0535Z" fill="#689F28"/>
</g>
<g filter="url(#filter5_i_50_342)">
<path d="M30.8959 46.3133C29.5966 57.7945 30.7887 69.9202 32.6192 72.8267C34.5627 71.1571 38.9247 58.8501 40.224 47.369C41.5233 35.8879 36.7513 36.3137 37.9125 26.0528C35.1319 31.5416 32.1951 34.8322 30.8959 46.3133Z" fill="#77B063"/>
</g>
<g filter="url(#filter6_di_50_342)">
<path d="M24.5463 36.1139C23.6239 47.6315 25.2127 59.7116 27.1375 62.5566C29.0252 60.8242 32.9817 48.3809 33.9041 36.8634C34.8265 25.3459 35.3134 25.8213 36.1378 15.5278C33.5385 21.1048 25.4688 24.5964 24.5463 36.1139Z" fill="#9DBD69"/>
</g>
<path fill-rule="evenodd" clip-rule="evenodd" d="M18.8907 60.5879H18.8158L18.8081 60.6627C18.45 64.1682 18.4501 69.7985 19.3657 75.2209C20.2805 80.6382 22.1129 85.872 25.4381 88.5582L25.4412 88.5606L25.4444 88.5628C26.9991 89.5931 29.9619 90.7043 33.4452 90.5037C36.9285 90.7043 39.8913 89.5931 41.446 88.5628L41.4493 88.5606L41.4523 88.5582C44.7776 85.872 46.61 80.6382 47.5248 75.2209C48.4404 69.7985 48.4405 64.1682 48.0823 60.6627L48.0747 60.5879H47.9997H33.4349H33.3524H18.8907ZM33.3524 60.7545H18.9658C18.6166 64.2512 18.623 69.825 19.5294 75.1931C20.443 80.6031 22.2669 85.7802 25.5392 88.4259C27.0677 89.4377 29.9973 90.5376 33.4445 90.3368C33.4447 90.3369 33.445 90.3368 33.4452 90.3368C33.4455 90.3368 33.4457 90.3368 33.446 90.3368C36.8932 90.5375 39.8227 89.4377 41.3512 88.4259C44.6235 85.7802 46.4475 80.6031 47.361 75.1931C48.2675 69.825 48.2738 64.2512 47.9247 60.7545H33.4349H33.3524Z" fill="#F8ADB2"/>
<path d="M33.3524 60.7545H18.9658C18.6166 64.2512 18.623 69.825 19.5294 75.1931C20.443 80.6031 22.2669 85.7802 25.5392 88.4259C27.0677 89.4377 29.9973 90.5376 33.4445 90.3368C33.4447 90.3369 33.445 90.3368 33.4452 90.3368L33.446 90.3368C36.8932 90.5375 39.8227 89.4377 41.3512 88.4259C44.6235 85.7802 46.4475 80.6031 47.361 75.1931C48.2675 69.825 48.2738 64.2512 47.9247 60.7545H33.4349H33.3524Z" fill="#F8ADB2"/>
<path fill-rule="evenodd" clip-rule="evenodd" d="M18.8907 60.5879H18.8158L18.8081 60.6627C18.45 64.1682 18.4501 69.7985 19.3657 75.2209C20.2805 80.6382 22.1129 85.872 25.4381 88.5582L25.4412 88.5606L25.4444 88.5628C26.9991 89.5931 29.9619 90.7043 33.4452 90.5037C36.9285 90.7043 39.8913 89.5931 41.446 88.5628L41.4493 88.5606L41.4523 88.5582C44.7776 85.872 46.61 80.6382 47.5248 75.2209C48.4404 69.7985 48.4405 64.1682 48.0823 60.6627L48.0747 60.5879H47.9997H33.4349H33.3524H18.8907ZM33.3524 60.7545H18.9658C18.6166 64.2512 18.623 69.825 19.5294 75.1931C20.443 80.6031 22.2669 85.7802 25.5392 88.4259C27.0677 89.4377 29.9973 90.5376 33.4445 90.3368C33.4447 90.3369 33.445 90.3368 33.4452 90.3368C33.4455 90.3368 33.4457 90.3368 33.446 90.3368C36.8932 90.5375 39.8227 89.4377 41.3512 88.4259C44.6235 85.7802 46.4475 80.6031 47.361 75.1931C48.2675 69.825 48.2738 64.2512 47.9247 60.7545H33.4349H33.3524Z" fill="#3D4D43"/>
<path d="M33.3524 60.7545H18.9658C18.6166 64.2512 18.623 69.825 19.5294 75.1931C20.443 80.6031 22.2669 85.7802 25.5392 88.4259C27.0677 89.4377 29.9973 90.5376 33.4445 90.3368C33.4447 90.3369 33.445 90.3368 33.4452 90.3368L33.446 90.3368C36.8932 90.5375 39.8227 89.4377 41.3512 88.4259C44.6235 85.7802 46.4475 80.6031 47.361 75.1931C48.2675 69.825 48.2738 64.2512 47.9247 60.7545H33.4349H33.3524Z" fill="#3D4D43"/>
<mask id="mask0_50_342" style="mask-type:alpha" maskUnits="userSpaceOnUse" x="18" y="60" width="136" height="137">
<path fill-rule="evenodd" clip-rule="evenodd" d="M19.9718 60.5879H19.6313L19.5966 60.9277C17.9696 76.8513 17.9701 102.427 22.1294 127.058C26.2847 151.666 34.6084 175.441 49.7133 187.643L49.7271 187.654L49.742 187.664C56.8042 192.344 70.2627 197.392 86.0856 196.48C101.908 197.392 115.367 192.344 122.429 187.664L122.444 187.654L122.458 187.643C137.563 175.441 145.886 151.666 150.042 127.058C154.201 102.427 154.202 76.8513 152.575 60.9277L152.54 60.5879H152.199H86.0386H85.6639H19.9718ZM85.6639 61.3447H20.3127C18.7266 77.2286 18.7555 102.547 22.8731 126.932C27.0229 151.507 35.3082 175.024 50.1725 187.042C57.1158 191.638 70.4233 196.634 86.0821 195.722C86.0833 195.723 86.0844 195.722 86.0856 195.722C86.0867 195.722 86.0879 195.722 86.089 195.722C101.748 196.634 115.055 191.638 121.999 187.042C136.863 175.024 145.148 151.507 149.298 126.932C153.416 102.547 153.445 77.2286 151.858 61.3447H86.0386H85.6639Z" fill="#F8ADB2"/>
<path d="M85.6639 61.3447H20.3127C18.7266 77.2286 18.7555 102.547 22.8731 126.932C27.0229 151.507 35.3082 175.024 50.1725 187.042C57.1158 191.638 70.4233 196.634 86.0821 195.722C86.0833 195.723 86.0844 195.722 86.0856 195.722L86.089 195.722C101.748 196.634 115.055 191.638 121.999 187.042C136.863 175.024 145.148 151.507 149.298 126.932C153.416 102.547 153.445 77.2286 151.858 61.3447H86.0386H85.6639Z" fill="#F8ADB2"/>
</mask>
<g mask="url(#mask0_50_342)">
<path fill-rule="evenodd" clip-rule="evenodd" d="M24.3123 63.739C23.6381 62.9102 22.8615 61.9557 22.695 61.7317L24.2641 60.439C24.4156 60.6428 25.0753 61.4527 25.7028 62.2232C26.1852 62.8155 26.6487 63.3845 26.8475 63.6368C28.4871 65.7164 31.0687 68.7728 33.4874 71.0275C34.8011 69.2106 36.1045 67.422 37.1481 65.9965C36.7687 65.4486 36.2492 64.7458 35.7211 64.0411C35.5579 63.8233 35.3932 63.6045 35.233 63.3916C34.6878 62.6672 34.1937 62.0107 33.9784 61.6874L35.6098 60.4832C35.7884 60.7513 36.2215 61.3269 36.7522 62.0323C36.9217 62.2576 37.1012 62.4961 37.2855 62.742C38.015 63.7156 38.8184 64.8034 39.2206 65.463C40.4928 67.5493 41.9535 70.1102 42.8185 72.1388C43.0434 71.9211 43.2674 71.6975 43.4904 71.4677L43.5411 71.4155C44.0896 70.8503 46.506 68.3604 46.8677 67.9439L48.3384 69.359C47.9765 69.7758 45.9956 71.8211 45.184 72.6577C45.1755 73.8156 44.6557 76.5172 44.5431 78.9057C44.4096 81.7388 43.764 84.2833 43.4904 85.7235L43.1511 85.4317C43.3899 84.1751 43.0154 81.4188 43.1511 78.5398C43.2183 77.1145 43.1192 75.7504 43.1511 74.6235C43.1162 74.6545 43.0812 74.6853 43.0462 74.7161C39.1821 78.1066 35.1148 79.9636 31.4861 80.9014C32.294 81.8419 33.4071 83.0138 34.6252 84.1592C36.5167 85.9377 38.4987 87.4961 39.8518 88.05L39.1296 90.005C37.4085 89.3004 35.1921 87.5047 33.2978 85.7235C31.656 84.1798 30.1353 82.5308 29.2479 81.379C28.9077 81.4365 28.5731 81.4861 28.2449 81.5285C25.7612 81.8493 22.2222 81.5035 20.771 81.2759L21.0645 79.2013C22.3597 79.4044 25.3361 79.6903 27.5297 79.4974C27.6424 79.3172 27.7741 79.1158 27.9138 78.9057C28.2419 78.4125 28.6768 77.78 29.183 77.0558C30.0522 75.8123 31.1409 74.2852 32.2793 72.7025C30.0291 70.6224 27.6742 67.9031 25.9953 65.8287C25.3681 66.5086 24.5377 67.5237 23.7178 68.716C22.5205 70.457 21.4396 72.4414 21.0303 74.1648L19.0973 73.6561C19.5989 71.544 20.8557 69.3008 22.1039 67.4859C23.0088 66.1701 23.9584 65.009 24.7036 64.2202C24.5814 64.0697 24.4489 63.9069 24.3123 63.739ZM30.2701 79.0439C30.4312 78.8105 30.6043 78.5615 30.7878 78.299C31.7922 76.8621 33.0966 75.0371 34.4351 73.181C35.7822 71.3131 37.1616 69.417 38.3006 67.8588C39.4988 69.8945 40.6497 72.0357 41.2318 73.5658C37.5239 76.6598 33.6568 78.278 30.2701 79.0439Z" fill="white"/>
<g style="mix-blend-mode:multiply" opacity="0.5">
<path d="M25.3225 88.2128C18.7948 83.184 18.1898 67.6733 18.7449 60.5879H24.3233C23.4953 79.6707 27.608 87.0833 29.1274 89.8218L29.1524 89.8669C27.9868 89.7015 25.822 88.7917 25.3225 88.2128Z" fill="#CC8F93"/>
<path d="M25.3225 88.2128C18.7948 83.184 18.1898 67.6733 18.7449 60.5879H24.3233C23.4953 79.6707 27.608 87.0833 29.1274 89.8218L29.1524 89.8669C27.9868 89.7015 25.822 88.7917 25.3225 88.2128Z" stroke="black"/>
</g>
</g>
</g>
<defs>
<filter id="filter0_d_50_342" x="-2.99604" y="-8.76508" width="72.9921" height="112.761" filterUnits="userSpaceOnUse" color-interpolation-filters="sRGB">
<feFlood flood-opacity="0" result="BackgroundImageFix"/>
<feColorMatrix in="SourceAlpha" type="matrix" values="0 0 0 0 0 0 0 0 0 0 0 0 0 0 0 0 0 0 127 0" result="hardAlpha"/>
<feOffset/>
<feGaussianBlur stdDeviation="6.49802"/>
<feComposite in2="hardAlpha" operator="out"/>
<feColorMatrix type="matrix" values="0 0 0 0 0 0 0 0 0 0 0 0 0 0 0 0 0 0 0.15 0"/>
<feBlend mode="normal" in2="BackgroundImageFix" result="effect1_dropShadow_50_342"/>
<feBlend mode="normal" in="SourceGraphic" in2="effect1_dropShadow_50_342" result="shape"/>
</filter>
<filter id="filter1_i_50_342" x="17.4518" y="4.60596" width="9.74646" height="46.9219" filterUnits="userSpaceOnUse" color-interpolation-filters="sRGB">
<feFlood flood-opacity="0" result="BackgroundImageFix"/>
<feBlend mode="normal" in="SourceGraphic" in2="BackgroundImageFix" result="shape"/>
<feColorMatrix in="SourceAlpha" type="matrix" values="0 0 0 0 0 0 0 0 0 0 0 0 0 0 0 0 0 0 127 0" result="hardAlpha"/>
<feOffset dx="3.30215" dy="1.10072"/>
<feComposite in2="hardAlpha" operator="arithmetic" k2="-1" k3="1"/>
<feColorMatrix type="matrix" values="0 0 0 0 0 0 0 0 0 0 0 0 0 0 0 0 0 0 0.22 0"/>
<feBlend mode="normal" in2="shape" result="effect1_innerShadow_50_342"/>
</filter>
<filter id="filter2_i_50_342" x="37.4714" y="9.79004" width="10.7959" height="49.0552" filterUnits="userSpaceOnUse" color-interpolation-filters="sRGB">
<feFlood flood-opacity="0" result="BackgroundImageFix"/>
<feBlend mode="normal" in="SourceGraphic" in2="BackgroundImageFix" result="shape"/>
<feColorMatrix in="SourceAlpha" type="matrix" values="0 0 0 0 0 0 0 0 0 0 0 0 0 0 0 0 0 0 127 0" result="hardAlpha"/>
<feOffset dx="3.30215" dy="1.10072"/>
<feComposite in2="hardAlpha" operator="arithmetic" k2="-1" k3="1"/>
<feColorMatrix type="matrix" values="0 0 0 0 0 0 0 0 0 0 0 0 0 0 0 0 0 0 0.22 0"/>
<feBlend mode="normal" in2="shape" result="effect1_innerShadow_50_342"/>
</filter>
<filter id="filter3_i_50_342" x="35.4419" y="22.918" width="18.2029" height="44.0269" filterUnits="userSpaceOnUse" color-interpolation-filters="sRGB">
<feFlood flood-opacity="0" result="BackgroundImageFix"/>
<feBlend mode="normal" in="SourceGraphic" in2="BackgroundImageFix" result="shape"/>
<feColorMatrix in="SourceAlpha" type="matrix" values="0 0 0 0 0 0 0 0 0 0 0 0 0 0 0 0 0 0 127 0" result="hardAlpha"/>
<feOffset dx="3.30215" dy="1.10072"/>
<feComposite in2="hardAlpha" operator="arithmetic" k2="-1" k3="1"/>
<feColorMatrix type="matrix" values="0 0 0 0 0 0 0 0 0 0 0 0 0 0 0 0 0 0 0.22 0"/>
<feBlend mode="normal" in2="shape" result="effect1_innerShadow_50_342"/>
</filter>
<filter id="filter4_i_50_342" x="13.9445" y="35.437" width="25.1628" height="39.7979" filterUnits="userSpaceOnUse" color-interpolation-filters="sRGB">
<feFlood flood-opacity="0" result="BackgroundImageFix"/>
<feBlend mode="normal" in="SourceGraphic" in2="BackgroundImageFix" result="shape"/>
<feColorMatrix in="SourceAlpha" type="matrix" values="0 0 0 0 0 0 0 0 0 0 0 0 0 0 0 0 0 0 127 0" result="hardAlpha"/>
<feOffset dx="3.30215" dy="1.10072"/>
<feComposite in2="hardAlpha" operator="arithmetic" k2="-1" k3="1"/>
<feColorMatrix type="matrix" values="0 0 0 0 0 0 0 0 0 0 0 0 0 0 0 0 0 0 0.22 0"/>
<feBlend mode="normal" in2="shape" result="effect1_innerShadow_50_342"/>
</filter>
<filter id="filter5_i_50_342" x="30.3489" y="26.0527" width="10.1013" height="46.7739" filterUnits="userSpaceOnUse" color-interpolation-filters="sRGB">
<feFlood flood-opacity="0" result="BackgroundImageFix"/>
<feBlend mode="normal" in="SourceGraphic" in2="BackgroundImageFix" result="shape"/>
<feColorMatrix in="SourceAlpha" type="matrix" values="0 0 0 0 0 0 0 0 0 0 0 0 0 0 0 0 0 0 127 0" result="hardAlpha"/>
<feOffset dx="3.30215" dy="1.10072"/>
<feComposite in2="hardAlpha" operator="arithmetic" k2="-1" k3="1"/>
<feColorMatrix type="matrix" values="0 0 0 0 0 0 0 0 0 0 0 0 0 0 0 0 0 0 0.22 0"/>
<feBlend mode="normal" in2="shape" result="effect1_innerShadow_50_342"/>
</filter>
<filter id="filter6_di_50_342" x="23.3963" y="15.5278" width="13.6221" height="48.79" filterUnits="userSpaceOnUse" color-interpolation-filters="sRGB">
<feFlood flood-opacity="0" result="BackgroundImageFix"/>
<feColorMatrix in="SourceAlpha" type="matrix" values="0 0 0 0 0 0 0 0 0 0 0 0 0 0 0 0 0 0 127 0" result="hardAlpha"/>
<feOffset dy="0.880573"/>
<feGaussianBlur stdDeviation="0.440286"/>
<feComposite in2="hardAlpha" operator="out"/>
<feColorMatrix type="matrix" values="0 0 0 0 0 0 0 0 0 0 0 0 0 0 0 0 0 0 0.25 0"/>
<feBlend mode="normal" in2="BackgroundImageFix" result="effect1_dropShadow_50_342"/>
<feBlend mode="normal" in="SourceGraphic" in2="effect1_dropShadow_50_342" result="shape"/>
<feColorMatrix in="SourceAlpha" type="matrix" values="0 0 0 0 0 0 0 0 0 0 0 0 0 0 0 0 0 0 127 0" result="hardAlpha"/>
<feOffset dx="2.86186" dy="9.24601"/>
<feComposite in2="hardAlpha" operator="arithmetic" k2="-1" k3="1"/>
<feColorMatrix type="matrix" values="0 0 0 0 0 0 0 0 0 0 0 0 0 0 0 0 0 0 0.25 0"/>
<feBlend mode="normal" in2="shape" result="effect2_innerShadow_50_342"/>
</filter>
</defs>
</svg>
