<svg width="67" height="113" viewBox="0 0 67 113" fill="none" xmlns="http://www.w3.org/2000/svg">
<g filter="url(#filter0_d_19_370)">
<g filter="url(#filter1_i_19_370)">
<path d="M26.9287 34.4696C27.8511 45.9872 26.2623 58.0673 24.3375 60.9123C22.4498 59.1799 18.4934 46.7366 17.571 35.2191C16.6486 23.7015 21.404 24.2835 20.5797 13.99C23.1789 19.567 26.0063 22.9521 26.9287 34.4696Z" fill="#45671F"/>
</g>
<g filter="url(#filter2_i_19_370)">
<path d="M47.9458 43.2765C45.9567 54.6584 41.3955 65.9567 38.82 68.2294C37.4259 66.0798 36.7092 53.0423 38.6983 41.6604C40.6874 30.2785 37.549 32.8533 40.4994 19.1741C42.1087 26.8184 49.9349 31.8946 47.9458 43.2765Z" fill="#689F29"/>
</g>
<g filter="url(#filter3_i_19_370)">
<path d="M49.4478 53.5983C45.3061 64.3848 38.6564 74.5945 35.6918 76.3293C34.7372 73.9516 36.5422 61.0198 40.684 50.2332C44.8257 39.4466 48.0959 45.1583 53.623 32.3023C53.7315 40.1133 53.5895 42.8117 49.4478 53.5983Z" fill="#3D5F30"/>
</g>
<g filter="url(#filter4_i_19_370)">
<path d="M23.966 69.4378C17.7954 59.6691 13.5867 48.2348 13.9685 44.8212C16.4451 45.4775 25.7323 54.6556 31.9029 64.4244C38.0734 74.1932 33.5924 75.8884 39.1072 84.619C34.2134 80.8894 30.1365 79.2066 23.966 69.4378Z" fill="#689F28"/>
</g>
<g filter="url(#filter5_i_19_370)">
<path d="M30.8958 55.6976C29.5965 67.1787 30.7887 79.3045 32.6192 82.211C34.5627 80.5414 38.9247 68.2344 40.2239 56.7533C41.5232 45.2721 36.7512 45.698 37.9124 35.437C35.1318 40.9259 32.1951 44.2165 30.8958 55.6976Z" fill="#77B063"/>
</g>
<g filter="url(#filter6_di_19_370)">
<path d="M24.5464 45.4982C23.624 57.0157 25.2127 69.0959 27.1375 71.9408C29.0253 70.2085 32.9817 57.7652 33.9041 46.2477C34.8265 34.7301 35.3135 35.2056 36.1378 24.9121C33.5386 30.4891 25.4688 33.9807 24.5464 45.4982Z" fill="#9DBD69"/>
</g>
<path fill-rule="evenodd" clip-rule="evenodd" d="M18.8908 69.9722H18.8158L18.8082 70.047C18.45 73.5524 18.4501 79.1827 19.3657 84.6052C20.2805 90.0225 22.1129 95.2563 25.4381 97.9425L25.4412 97.9449L25.4444 97.9471C26.9991 98.9773 29.9619 100.089 33.4452 99.888C36.9285 100.089 39.8913 98.9773 41.446 97.9471L41.4493 97.9449L41.4524 97.9425C44.7776 95.2563 46.61 90.0225 47.5248 84.6052C48.4404 79.1827 48.4405 73.5524 48.0823 70.047L48.0747 69.9722H47.9997H33.4349H33.3524H18.8908ZM33.3524 70.1388H18.9658C18.6166 73.6355 18.623 79.2093 19.5295 84.5774C20.443 89.9874 22.2669 95.1645 25.5392 97.8102C27.0677 98.8219 29.9973 99.9218 33.4445 99.7211C33.4447 99.7211 33.445 99.7211 33.4452 99.7211C33.4455 99.7211 33.4457 99.7211 33.446 99.721C36.8932 99.9218 39.8227 98.8219 41.3513 97.8102C44.6235 95.1645 46.4475 89.9874 47.361 84.5774C48.2675 79.2093 48.2739 73.6355 47.9247 70.1388H33.4349H33.3524Z" fill="#F8ADB2"/>
<path d="M33.3524 70.1388H18.9658C18.6166 73.6355 18.623 79.2093 19.5295 84.5774C20.443 89.9874 22.2669 95.1645 25.5392 97.8102C27.0677 98.8219 29.9973 99.9218 33.4445 99.7211C33.4447 99.7211 33.445 99.7211 33.4452 99.7211L33.446 99.721C36.8932 99.9218 39.8227 98.8219 41.3513 97.8102C44.6235 95.1645 46.4475 89.9874 47.361 84.5774C48.2675 79.2093 48.2739 73.6355 47.9247 70.1388H33.4349H33.3524Z" fill="#F8ADB2"/>
<path fill-rule="evenodd" clip-rule="evenodd" d="M18.8908 69.9722H18.8158L18.8082 70.047C18.45 73.5524 18.4501 79.1827 19.3657 84.6052C20.2805 90.0225 22.1129 95.2563 25.4381 97.9425L25.4412 97.9449L25.4444 97.9471C26.9991 98.9773 29.9619 100.089 33.4452 99.888C36.9285 100.089 39.8913 98.9773 41.446 97.9471L41.4493 97.9449L41.4524 97.9425C44.7776 95.2563 46.61 90.0225 47.5248 84.6052C48.4404 79.1827 48.4405 73.5524 48.0823 70.047L48.0747 69.9722H47.9997H33.4349H33.3524H18.8908ZM33.3524 70.1388H18.9658C18.6166 73.6355 18.623 79.2093 19.5295 84.5774C20.443 89.9874 22.2669 95.1645 25.5392 97.8102C27.0677 98.8219 29.9973 99.9218 33.4445 99.7211C33.4447 99.7211 33.445 99.7211 33.4452 99.7211C33.4455 99.7211 33.4457 99.7211 33.446 99.721C36.8932 99.9218 39.8227 98.8219 41.3513 97.8102C44.6235 95.1645 46.4475 89.9874 47.361 84.5774C48.2675 79.2093 48.2739 73.6355 47.9247 70.1388H33.4349H33.3524Z" fill="#3D4D43"/>
<path d="M33.3524 70.1388H18.9658C18.6166 73.6355 18.623 79.2093 19.5295 84.5774C20.443 89.9874 22.2669 95.1645 25.5392 97.8102C27.0677 98.8219 29.9973 99.9218 33.4445 99.7211C33.4447 99.7211 33.445 99.7211 33.4452 99.7211L33.446 99.721C36.8932 99.9218 39.8227 98.8219 41.3513 97.8102C44.6235 95.1645 46.4475 89.9874 47.361 84.5774C48.2675 79.2093 48.2739 73.6355 47.9247 70.1388H33.4349H33.3524Z" fill="#3D4D43"/>
<mask id="mask0_19_370" style="mask-type:alpha" maskUnits="userSpaceOnUse" x="18" y="69" width="136" height="137">
<path fill-rule="evenodd" clip-rule="evenodd" d="M19.9718 69.9722H19.6313L19.5966 70.312C17.9696 86.2356 17.9701 111.811 22.1294 136.443C26.2847 161.051 34.6084 184.825 49.7133 197.027L49.7272 197.038L49.742 197.048C56.8042 201.728 70.2627 206.776 86.0856 205.865C101.908 206.776 115.367 201.728 122.429 197.048L122.444 197.038L122.458 197.027C137.563 184.825 145.886 161.051 150.042 136.443C154.201 111.811 154.202 86.2356 152.575 70.312L152.54 69.9722H152.199H86.0386H85.6639H19.9718ZM85.6639 70.7289H20.3127C18.7266 86.6129 18.7555 111.932 22.8731 136.316C27.0229 160.891 35.3082 184.408 50.1725 196.426C57.1158 201.022 70.4233 206.019 86.0821 205.107C86.0833 205.107 86.0844 205.106 86.0856 205.107C86.0867 205.106 86.0879 205.106 86.089 205.106C101.748 206.018 115.055 201.022 121.999 196.426C136.863 184.408 145.148 160.891 149.298 136.316C153.416 111.932 153.445 86.6129 151.858 70.7289H86.0386H85.6639Z" fill="#F8ADB2"/>
<path d="M85.6639 70.7289H20.3127C18.7266 86.6129 18.7555 111.932 22.8731 136.316C27.0229 160.891 35.3082 184.408 50.1725 196.426C57.1158 201.022 70.4233 206.019 86.0821 205.107C86.0833 205.107 86.0844 205.106 86.0856 205.107L86.089 205.106C101.748 206.018 115.055 201.022 121.999 196.426C136.863 184.408 145.148 160.891 149.298 136.316C153.416 111.932 153.445 86.6129 151.858 70.7289H86.0386H85.6639Z" fill="#F8ADB2"/>
</mask>
<g mask="url(#mask0_19_370)">
<path fill-rule="evenodd" clip-rule="evenodd" d="M24.3123 73.1233C23.638 72.2945 22.8614 71.34 22.6949 71.116L24.264 69.8232C24.4156 70.0271 25.0752 70.837 25.7027 71.6074C26.1852 72.1998 26.6486 72.7688 26.8475 73.021C28.487 75.1007 31.0686 78.1571 33.4873 80.4118C34.801 78.5949 36.1044 76.8063 37.1481 75.3808C36.7686 74.8329 36.2491 74.1301 35.7211 73.4254C35.5578 73.2075 35.3932 72.9888 35.233 72.7759C34.6877 72.0515 34.1936 71.395 33.9783 71.0717L35.6097 69.8675C35.7883 70.1356 36.2214 70.7112 36.7522 71.4166C36.9217 71.6419 37.1011 71.8804 37.2854 72.1263C38.015 73.0999 38.8183 74.1877 39.2205 74.8473C40.4927 76.9336 41.9534 79.4945 42.8184 81.523C43.0433 81.3054 43.2674 81.0818 43.4904 80.852L43.541 80.7998C44.0895 80.2346 46.506 77.7447 46.8676 77.3281L48.3383 78.7433C47.9764 79.1601 45.9956 81.2054 45.1839 82.042C45.1755 83.1999 44.6556 85.9015 44.5431 88.2899C44.4095 91.1231 43.764 93.6676 43.4904 95.1078L43.1511 94.816C43.3898 93.5594 43.0154 90.8031 43.1511 87.9241C43.2183 86.4988 43.1192 85.1346 43.1511 84.0078C43.1161 84.0388 43.0811 84.0696 43.0461 84.1003C39.1821 87.4909 35.1148 89.3479 31.486 90.2857C32.294 91.2262 33.407 92.3981 34.6251 93.5434C36.5166 95.322 38.4987 96.8804 39.8517 97.4343L39.1296 99.3892C37.4085 98.6846 35.1921 96.8889 33.2978 95.1078C31.656 93.564 30.1353 91.9151 29.2478 90.7633C28.9076 90.8208 28.5731 90.8704 28.2448 90.9128C25.7612 91.2336 22.2221 90.8877 20.7709 90.6602L21.0644 88.5856C22.3597 88.7886 25.3361 89.0745 27.5297 88.8817C27.6423 88.7014 27.774 88.5001 27.9138 88.2899C28.2418 87.7967 28.6768 87.1643 29.183 86.4401C30.0522 85.1966 31.1409 83.6695 32.2793 82.0868C30.029 80.0067 27.6742 77.2874 25.9953 75.213C25.3681 75.8929 24.5377 76.908 23.7178 78.1002C22.5204 79.8412 21.4395 81.8257 21.0302 83.5491L19.0972 83.0404C19.5988 80.9283 20.8557 78.6851 22.1038 76.8702C23.0087 75.5544 23.9584 74.3933 24.7036 73.6044C24.5813 73.454 24.4489 73.2912 24.3123 73.1233ZM30.2701 88.4282C30.4312 88.1948 30.6043 87.9458 30.7878 87.6833C31.7922 86.2464 33.0965 84.4214 34.4351 82.5653C35.7821 80.6974 37.1615 78.8012 38.3006 77.2431C39.4987 79.2788 40.6497 81.42 41.2318 82.95C37.5238 86.0441 33.6567 87.6623 30.2701 88.4282Z" fill="white"/>
<g style="mix-blend-mode:multiply" opacity="0.5">
<path d="M25.3225 97.597C18.7948 92.5683 18.1898 77.0576 18.7449 69.9722H24.3233C23.4953 89.055 27.608 96.4676 29.1274 99.2061L29.1525 99.2512C27.9868 99.0858 25.822 98.176 25.3225 97.597Z" fill="#CC8F93"/>
<path d="M25.3225 97.597C18.7948 92.5683 18.1898 77.0576 18.7449 69.9722H24.3233C23.4953 89.055 27.608 96.4676 29.1274 99.2061L29.1525 99.2512C27.9868 99.0858 25.822 98.176 25.3225 97.597Z" stroke="black"/>
</g>
</g>
</g>
<defs>
<filter id="filter0_d_19_370" x="-2.99604" y="0.619193" width="72.9921" height="112.761" filterUnits="userSpaceOnUse" color-interpolation-filters="sRGB">
<feFlood flood-opacity="0" result="BackgroundImageFix"/>
<feColorMatrix in="SourceAlpha" type="matrix" values="0 0 0 0 0 0 0 0 0 0 0 0 0 0 0 0 0 0 127 0" result="hardAlpha"/>
<feOffset/>
<feGaussianBlur stdDeviation="6.49802"/>
<feComposite in2="hardAlpha" operator="out"/>
<feColorMatrix type="matrix" values="0 0 0 0 0 0 0 0 0 0 0 0 0 0 0 0 0 0 0.15 0"/>
<feBlend mode="normal" in2="BackgroundImageFix" result="effect1_dropShadow_19_370"/>
<feBlend mode="normal" in="SourceGraphic" in2="effect1_dropShadow_19_370" result="shape"/>
</filter>
<filter id="filter1_i_19_370" x="17.4517" y="13.9902" width="9.74651" height="46.9219" filterUnits="userSpaceOnUse" color-interpolation-filters="sRGB">
<feFlood flood-opacity="0" result="BackgroundImageFix"/>
<feBlend mode="normal" in="SourceGraphic" in2="BackgroundImageFix" result="shape"/>
<feColorMatrix in="SourceAlpha" type="matrix" values="0 0 0 0 0 0 0 0 0 0 0 0 0 0 0 0 0 0 127 0" result="hardAlpha"/>
<feOffset dx="3.30215" dy="1.10072"/>
<feComposite in2="hardAlpha" operator="arithmetic" k2="-1" k3="1"/>
<feColorMatrix type="matrix" values="0 0 0 0 0 0 0 0 0 0 0 0 0 0 0 0 0 0 0.22 0"/>
<feBlend mode="normal" in2="shape" result="effect1_innerShadow_19_370"/>
</filter>
<filter id="filter2_i_19_370" x="37.4714" y="19.1743" width="10.7959" height="49.0552" filterUnits="userSpaceOnUse" color-interpolation-filters="sRGB">
<feFlood flood-opacity="0" result="BackgroundImageFix"/>
<feBlend mode="normal" in="SourceGraphic" in2="BackgroundImageFix" result="shape"/>
<feColorMatrix in="SourceAlpha" type="matrix" values="0 0 0 0 0 0 0 0 0 0 0 0 0 0 0 0 0 0 127 0" result="hardAlpha"/>
<feOffset dx="3.30215" dy="1.10072"/>
<feComposite in2="hardAlpha" operator="arithmetic" k2="-1" k3="1"/>
<feColorMatrix type="matrix" values="0 0 0 0 0 0 0 0 0 0 0 0 0 0 0 0 0 0 0.22 0"/>
<feBlend mode="normal" in2="shape" result="effect1_innerShadow_19_370"/>
</filter>
<filter id="filter3_i_19_370" x="35.4419" y="32.3022" width="18.2029" height="44.0269" filterUnits="userSpaceOnUse" color-interpolation-filters="sRGB">
<feFlood flood-opacity="0" result="BackgroundImageFix"/>
<feBlend mode="normal" in="SourceGraphic" in2="BackgroundImageFix" result="shape"/>
<feColorMatrix in="SourceAlpha" type="matrix" values="0 0 0 0 0 0 0 0 0 0 0 0 0 0 0 0 0 0 127 0" result="hardAlpha"/>
<feOffset dx="3.30215" dy="1.10072"/>
<feComposite in2="hardAlpha" operator="arithmetic" k2="-1" k3="1"/>
<feColorMatrix type="matrix" values="0 0 0 0 0 0 0 0 0 0 0 0 0 0 0 0 0 0 0.22 0"/>
<feBlend mode="normal" in2="shape" result="effect1_innerShadow_19_370"/>
</filter>
<filter id="filter4_i_19_370" x="13.9445" y="44.8213" width="25.1627" height="39.7979" filterUnits="userSpaceOnUse" color-interpolation-filters="sRGB">
<feFlood flood-opacity="0" result="BackgroundImageFix"/>
<feBlend mode="normal" in="SourceGraphic" in2="BackgroundImageFix" result="shape"/>
<feColorMatrix in="SourceAlpha" type="matrix" values="0 0 0 0 0 0 0 0 0 0 0 0 0 0 0 0 0 0 127 0" result="hardAlpha"/>
<feOffset dx="3.30215" dy="1.10072"/>
<feComposite in2="hardAlpha" operator="arithmetic" k2="-1" k3="1"/>
<feColorMatrix type="matrix" values="0 0 0 0 0 0 0 0 0 0 0 0 0 0 0 0 0 0 0.22 0"/>
<feBlend mode="normal" in2="shape" result="effect1_innerShadow_19_370"/>
</filter>
<filter id="filter5_i_19_370" x="30.3488" y="35.437" width="10.1014" height="46.7739" filterUnits="userSpaceOnUse" color-interpolation-filters="sRGB">
<feFlood flood-opacity="0" result="BackgroundImageFix"/>
<feBlend mode="normal" in="SourceGraphic" in2="BackgroundImageFix" result="shape"/>
<feColorMatrix in="SourceAlpha" type="matrix" values="0 0 0 0 0 0 0 0 0 0 0 0 0 0 0 0 0 0 127 0" result="hardAlpha"/>
<feOffset dx="3.30215" dy="1.10072"/>
<feComposite in2="hardAlpha" operator="arithmetic" k2="-1" k3="1"/>
<feColorMatrix type="matrix" values="0 0 0 0 0 0 0 0 0 0 0 0 0 0 0 0 0 0 0.22 0"/>
<feBlend mode="normal" in2="shape" result="effect1_innerShadow_19_370"/>
</filter>
<filter id="filter6_di_19_370" x="23.3963" y="24.9121" width="13.6221" height="48.79" filterUnits="userSpaceOnUse" color-interpolation-filters="sRGB">
<feFlood flood-opacity="0" result="BackgroundImageFix"/>
<feColorMatrix in="SourceAlpha" type="matrix" values="0 0 0 0 0 0 0 0 0 0 0 0 0 0 0 0 0 0 127 0" result="hardAlpha"/>
<feOffset dy="0.880573"/>
<feGaussianBlur stdDeviation="0.440286"/>
<feComposite in2="hardAlpha" operator="out"/>
<feColorMatrix type="matrix" values="0 0 0 0 0 0 0 0 0 0 0 0 0 0 0 0 0 0 0.25 0"/>
<feBlend mode="normal" in2="BackgroundImageFix" result="effect1_dropShadow_19_370"/>
<feBlend mode="normal" in="SourceGraphic" in2="effect1_dropShadow_19_370" result="shape"/>
<feColorMatrix in="SourceAlpha" type="matrix" values="0 0 0 0 0 0 0 0 0 0 0 0 0 0 0 0 0 0 127 0" result="hardAlpha"/>
<feOffset dx="2.86186" dy="9.24601"/>
<feComposite in2="hardAlpha" operator="arithmetic" k2="-1" k3="1"/>
<feColorMatrix type="matrix" values="0 0 0 0 0 0 0 0 0 0 0 0 0 0 0 0 0 0 0.25 0"/>
<feBlend mode="normal" in2="shape" result="effect2_innerShadow_19_370"/>
</filter>
</defs>
</svg>
