<svg width="20" height="20" viewBox="0 0 20 20" fill="none" xmlns="http://www.w3.org/2000/svg">
<path d="M8.57502 3.21684L1.51668 15.0002C1.37116 15.2522 1.29416 15.5379 1.29334 15.8289C1.29253 16.12 1.36793 16.4061 1.51204 16.6589C1.65615 16.9118 1.86396 17.1225 2.11477 17.27C2.36559 17.4176 2.65068 17.497 2.94168 17.5002H17.0583C17.3494 17.497 17.6344 17.4176 17.8853 17.27C18.1361 17.1225 18.3439 16.9118 18.488 16.6589C18.6321 16.4061 18.7075 16.12 18.7067 15.8289C18.7059 15.5379 18.6289 15.2522 18.4834 15.0002L11.425 3.21684C11.2765 2.97193 11.0673 2.76944 10.8177 2.62891C10.5681 2.48838 10.2865 2.41455 10 2.41455C9.71357 2.41455 9.43196 2.48838 9.18235 2.62891C8.93275 2.76944 8.72358 2.97193 8.57502 3.21684V3.21684Z" stroke="#9F2828" stroke-linecap="round" stroke-linejoin="round"/>
<path d="M10 7.5V10.8333" stroke="#9F2828" stroke-linecap="round" stroke-linejoin="round"/>
<path d="M10 14.1665H10.0083" stroke="#9F2828" stroke-linecap="round" stroke-linejoin="round"/>
</svg>
