<svg width="31" height="31" viewBox="0 0 31 31" fill="none" xmlns="http://www.w3.org/2000/svg">
<path d="M15.1571 27.1382C21.3703 27.1382 26.4071 22.1014 26.4071 15.8882C26.4071 9.67498 21.3703 4.63818 15.1571 4.63818C8.94393 4.63818 3.90714 9.67498 3.90714 15.8882C3.90714 22.1014 8.94393 27.1382 15.1571 27.1382Z" stroke="#3D4D43" stroke-width="1.875" stroke-miterlimit="10"/>
<path d="M16.5048 15.8882C16.5048 16.6325 15.9014 17.2358 15.1571 17.2358C14.4128 17.2358 13.8095 16.6325 13.8095 15.8882C13.8095 15.1439 14.4128 14.5405 15.1571 14.5405C15.9014 14.5405 16.5048 15.1439 16.5048 15.8882Z" fill="black" stroke="#3D4D43" stroke-width="0.117188"/>
<path d="M22.1298 15.8882C22.1298 16.6325 21.5264 17.2358 20.7821 17.2358C20.0378 17.2358 19.4345 16.6325 19.4345 15.8882C19.4345 15.1439 20.0378 14.5405 20.7821 14.5405C21.5264 14.5405 22.1298 15.1439 22.1298 15.8882Z" fill="black" stroke="#3D4D43" stroke-width="0.117188"/>
<path d="M10.8798 15.8882C10.8798 16.6325 10.2764 17.2358 9.53214 17.2358C8.78785 17.2358 8.18448 16.6325 8.18448 15.8882C8.18448 15.1439 8.78785 14.5405 9.53214 14.5405C10.2764 14.5405 10.8798 15.1439 10.8798 15.8882Z" fill="black" stroke="#3D4D43" stroke-width="0.117188"/>
</svg>
